{
  "title": "The Night Of S01E02 1080p HDTV HEVC DD2.0 x265",
  "uid": 15432386,
  "size": 1040222344,
  "categoryP": "video",
  "categoryS": "hd___tv_shows",
  "magnet": "?xt=urn:btih:933302bc65efc91980600e97024ddb438b94dd46&amp;dn=The+Night+Of+S01E02+1080p+HDTV+HEVC+DD2.0+x265&amp;tr=udp%3A%2F%2Ftracker.leechers-paradise.org%3A6969&amp;tr=udp%3A%2F%2Fzer0day.ch%3A1337&amp;tr=udp%3A%2F%2Fopen.demonii.com%3A1337&amp;tr=udp%3A%2F%2Ftracker.coppersurfer.tk%3A6969&amp;tr=udp%3A%2F%2Fexodus.desync.com%3A6969",
  "seeders": 128,
  "leechers": 3,
  "uploader": "nayhtut",
  "files": 1,
  "time": 1469735547,
  "description": "[Screenshots]\r\n\r\n \nhttps://s31.postimg.org/83g6yikzf/The_Night_Of_S01_E02_1080p_HDTV_HEVC_DD2_0_x265_0.jpg \nhttps://s31.postimg.org/viy43v4qj/The_Night_Of_S01_E02_1080p_HDTV_HEVC_DD2_0_x265_0.jpg \nhttps://s31.postimg.org/z3yl0tynv/The_Night_Of_S01_E02_1080p_HDTV_HEVC_DD2_0_x265_0.jpg\r\n\r\n\r\n\r\nSource: THE NIGHT OF S01E02 1080P HDTV DD5 1 X264-CASSTUDIO (2.96 GB)\r\n\r\n\r\n__--__--__--__--__--__--__--__--__--__--__--__--__--\r\n\r\n\r\nComplete name                            : The.Night.Of.S01E02.1080p.HDTV.HEVC.DD2.0.x265.mkv\r\nFormat                                   : Matroska\r\nFormat version                           : Version 4 / Version 2\r\nFile size                                : 992 MiB\r\nDuration                                 : 57mn 27s\r\nOverall bit rate                         : 2 414 Kbps\r\nWriting application                      : Lavf57.25.100\r\nWriting library                          : Lavf57.25.100\r\n\r\nVideo\r\n\r\nID                                       : 1\r\nFormat                                   : V_MPEGH/ISO/HEVC\r\nCodec ID                                 : V_MPEGH/ISO/HEVC\r\nDuration                                 : 57mn 27s\r\nBit rate                                 : 2 046 Kbps\r\nWidth                                    : 1 920 pixels\r\nHeight                                   : 1 080 pixels\r\nDisplay aspect ratio                     : 16:9\r\nFrame rate                               : 25.000 fps\r\nBits/(Pixel*Frame)                       : 0.039\r\nStream size                              : 841 MiB (85%)\r\nWriting library                          : Lavc57.48.101 libx265\r\nDefault                                  : Yes\r\nForced                                   : Yes\r\nDURATION                                 : 00:57:26.891000000\r\nNUMBER_OF_FRAMES                         : 86171\r\nNUMBER_OF_BYTES                          : 2151811914\r\n_STATISTICS_WRITING_APP                  : mkvmerge v8.3.0 ('Over the Horizon') 64bit\r\n_STATISTICS_WRITING_DATE_UTC             : 2016-07-18 11:36:29\r\n_STATISTICS_TAGS                         : BPS DURATION NUMBER_OF_FRAMES NUMBER_OF_BYTES\r\n\r\nAudio\r\n\r\nID                                       : 2\r\nFormat                                   : AC-3\r\nFormat/Info                              : Audio Coding 3\r\nMode extension                           : CM (complete main)\r\nFormat settings, Endianness              : Big\r\nCodec ID                                 : A_AC3\r\nDuration                                 : 57mn 27s\r\nBit rate mode                            : Constant\r\nBit rate                                 : 320 Kbps\r\nChannel(s)                               : 2 channels\r\nChannel positions                        : Front: L R\r\nSampling rate                            : 48.0 KHz\r\nBit depth                                : 16 bits\r\nCompression mode                         : Lossy\r\nStream size                              : 131 MiB (13%)\r\nTitle                                    : AC3 5.1 @ 640 Kbps\r\nWriting library                          : Lavc57.24.102 ac3\r\nLanguage                                 : English\r\nDefault                                  : Yes\r\nForced                                   : Yes\r\nDURATION                                 : 00:57:27.007000000\r\nNUMBER_OF_FRAMES                         : 107717\r\nNUMBER_OF_BYTES                          : 165453312\r\n_STATISTICS_WRITING_APP                  : mkvmerge v8.3.0 ('Over the Horizon') 64bit\r\n_STATISTICS_WRITING_DATE_UTC             : 2016-07-18 11:36:29\r\n_STATISTICS_TAGS                         : BPS DURATION NUMBER_OF_FRAMES NUMBER_OF_BYTES\r\n\r\n\r\n__--__--__--__--__--__--__--__--__--__--__--__--__--\r\n\r\n\r\nIMDb: http://www.imdb.com/title/tt2401256\r\n\r\nAfter adding torrent with maget link,\r\n\r\nplease add this  following trackers list to the torrent for better seeds.\r\n\r\n\r\nudp://tracker.coppersurfer.tk:6969/announce\r\n\r\nudp://tracker.opentrackr.org:1337/announce\r\n \nhttp://tracker.baravik.org:6970/announce\r\n \nhttp://tracker2.wasabii.com.tw:6969/announce\r\n\r\nudp://9.rarbg.me:2710/announce\r\n\r\n\r\n__--__--__--__--__--__--__--__--__--__--__--__--__--\r\n\r\n\r\nEnjoy!",
  "parsed": {
    "xt": "urn:btih:933302bc65efc91980600e97024ddb438b94dd46",
    "dn": "The Night Of S01E02 1080p HDTV HEVC DD2.0 x265",
    "tr": [
      "udp://exodus.desync.com:6969",
      "udp://open.demonii.com:1337",
      "udp://tracker.coppersurfer.tk:6969",
      "udp://tracker.leechers-paradise.org:6969",
      "udp://zer0day.ch:1337"
    ],
    "infoHash": "933302bc65efc91980600e97024ddb438b94dd46",
    "infoHashBuffer": {
      "type": "Buffer",
      "data": [
        147,
        51,
        2,
        188,
        101,
        239,
        201,
        25,
        128,
        96,
        14,
        151,
        2,
        77,
        219,
        67,
        139,
        148,
        221,
        70
      ]
    },
    "name": "The Night Of S01E02 1080p HDTV HEVC DD2.0 x265",
    "announce": [
      "udp://exodus.desync.com:6969",
      "udp://open.demonii.com:1337",
      "udp://tracker.coppersurfer.tk:6969",
      "udp://tracker.leechers-paradise.org:6969",
      "udp://zer0day.ch:1337"
    ],
    "urlList": []
  },
  "previous": 131,
  "peers": 88,
  "last_updated": "2016-12-25T08:05:31.677Z"
}